<svg width="700" height="688" viewBox="0 0 700 688" fill="none" xmlns="http://www.w3.org/2000/svg">
<g clip-path="url(#clip0_1546_666)">
<rect width="700" height="688" fill="black"/>
<path d="M0.273438 128.472C0.546875 248.658 0.820313 257.861 4.375 242.973C11.7578 212.927 26.25 188.294 51.9531 162.85C78.4766 136.322 101.992 122.788 135.625 114.396C167.891 106.276 213.555 107.9 241.445 118.457C245.547 120.081 246.094 118.457 246.094 103.839V87.3274H259.766H273.438V110.065C273.438 132.262 273.711 133.074 281.367 138.488C285.742 141.736 290.117 144.172 290.938 144.172C291.758 144.172 292.578 125.765 292.578 103.569V62.9654H304.883H317.188V116.02V168.805L326.758 181.256L336.328 193.708V95.7187V-1.99993H168.164H0L0.273438 128.472Z" fill="white"/>
<path d="M363.672 95.7186V193.708L373.242 181.256L382.813 168.805V116.02V62.9653H395.117H407.422V103.569C407.422 125.765 408.242 144.172 409.063 144.172C409.883 144.172 414.258 141.736 418.633 138.487C426.289 133.074 426.563 132.262 426.563 110.065V87.3273H440.234H453.906V103.839C453.906 118.456 454.453 120.081 458.828 118.456C486.445 107.9 532.109 106.275 564.375 114.396C598.008 122.788 621.523 136.322 648.047 162.849C673.477 188.023 688.242 213.468 695.625 243.515C699.18 257.591 699.453 246.492 699.727 128.472L700 -2H531.836H363.672V95.7186Z" fill="white"/>
<path d="M142.734 138.758C86.9531 153.375 42.6562 197.498 28.9844 252.718C26.5234 262.463 24.6094 271.937 24.6094 273.561C24.6094 275.727 31.7187 276.809 47.8516 276.809H71.0937L94.0625 231.334L117.031 186.129L119.492 195.603C120.859 200.746 128.242 229.168 135.625 258.403C142.734 287.908 149.57 310.916 150.664 309.833C151.484 308.751 160.781 286.825 170.898 261.109C181.289 235.665 190.586 214.551 191.68 214.551C192.773 214.551 200.977 231.875 210 252.989L226.406 291.697L232.695 278.704L238.984 265.982H287.383H335.781L331.68 250.282C321.562 211.573 289.57 170.97 255.117 152.834C233.789 141.736 200.977 133.344 179.375 133.615C170.078 133.615 153.672 136.051 142.734 138.758Z" fill="white"/>
<path d="M481.797 138.758C452.812 146.338 430.664 159.06 408.789 180.715C378.711 210.491 363.672 246.492 363.672 288.99C363.672 317.683 365.312 322.827 373.789 322.827C387.188 322.827 414.531 331.489 436.133 342.587C467.852 359.099 495.469 386.98 511.602 419.462L523.633 443.824L534.57 442.742C613.594 434.08 675.391 366.407 675.391 288.99C675.117 218.07 626.445 156.624 556.445 138.758C529.922 131.991 507.773 131.991 481.797 138.758ZM561.367 226.191C583.516 259.215 601.562 287.366 601.562 288.449C601.562 291.427 521.719 409.447 519.531 409.447C517.344 409.447 437.5 291.427 437.5 288.449C437.5 285.742 517.891 165.827 519.531 165.827C520.352 165.827 538.945 193.167 561.367 226.191Z" fill="white"/>
<path d="M97.6172 280.87L87.5 301.171H55.7812H24.0625L25.7031 311.187C38.2812 380.754 95.7031 434.892 165.43 442.742L176.367 443.824L188.125 419.462C205.352 384.544 232.422 358.016 268.242 340.963C293.672 329.052 313.359 322.827 326.211 322.827C333.867 322.827 336.328 317.142 336.328 300.359V290.344H296.68H257.031L241.992 320.12C233.516 336.632 225.859 349.625 224.492 348.813C223.398 348.001 215.742 332.03 207.812 313.352C199.883 294.675 192.5 280.328 191.406 281.411C190.312 282.494 179.922 307.397 168.438 336.361C156.68 365.325 146.289 390.228 145.195 391.311C143.828 392.664 135.898 365.054 127.148 330.406C118.398 295.758 110.469 265.711 109.648 264.087C108.555 261.922 103.633 268.959 97.6172 280.87Z" fill="white"/>
<path d="M0.273438 504.729L0 690.963H61.5234H123.047V678.782V666.601H135.352H147.656V678.782V690.963H350H552.344V678.782V666.601H564.648H576.953V678.782V690.963H638.477H700L699.727 504.729C699.727 338.256 699.18 320.39 695.625 333.654C693.711 341.775 686.328 359.64 679.492 372.904L667.188 397.266V472.517V547.498H654.883H642.578L642.031 485.24L641.211 423.252L632.461 430.019L623.438 436.786V513.933V590.808H609.766H596.094V521.512C596.094 456.547 595.82 452.216 591.445 454.111C588.711 455.193 584.336 456.817 581.875 457.359C577.227 458.712 576.953 465.75 576.953 553.183V647.653H564.648H552.344V556.972V466.292H544.961C532.109 466.292 531.289 468.457 531.016 500.128C530.742 534.505 526.367 553.995 512.695 581.334C489.727 627.893 443.789 664.165 393.75 675.805C371.055 681.218 328.945 681.218 306.25 675.805C255.391 664.165 208.086 625.998 185.664 578.627C173.359 552.912 168.711 530.445 168.711 498.774C168.984 468.457 167.891 466.292 155.312 466.292H147.656V556.972V647.653H135.352H123.047V553.183C123.047 465.75 122.773 458.712 118.398 457.359C115.664 456.817 111.289 455.193 108.828 454.111C104.18 452.216 103.906 456.547 103.906 521.512V590.808H90.2344H76.5625V513.933V436.786L67.8125 430.019L58.7891 423.252L57.9688 485.24L57.4219 547.498H45.1172H32.8125V472.517V397.266L20.5078 372.904C13.6719 359.64 6.28906 341.775 4.375 333.654C0.820312 320.39 0.273438 338.256 0.273438 504.729Z" fill="white"/>
<path d="M309.258 351.52C284.648 358.016 262.5 371.28 240.352 393.206C208.633 424.335 194.141 458.442 194.141 502.293C194.141 571.59 245.82 635.472 314.727 651.713C424.375 677.158 525.82 578.357 502.852 468.457C491.914 415.673 442.969 365.054 389.648 351.249C369.414 346.106 328.945 346.106 309.258 351.52ZM384.18 369.926C404.688 375.611 415.898 381.025 432.031 392.935C488.906 435.433 503.398 515.286 464.57 574.838C459.922 582.146 455.273 588.102 454.18 588.102C453.359 588.102 448.438 584.583 443.242 580.252L433.945 572.672L441.055 563.469C458.281 540.731 465.664 505.271 458.281 477.66C452.539 455.464 445.977 443.283 430.938 426.771C394.023 385.897 330.586 379.671 284.648 412.154L276.719 417.568L269.336 407.823C262.773 399.161 262.227 397.807 266.055 393.747C271.797 387.521 298.594 374.257 314.18 370.197C331.133 365.325 367.5 365.325 384.18 369.926ZM364.219 409.988C365.039 420.545 365.859 421.628 374.609 423.793C386.641 426.771 400.859 440.035 404.961 452.216C409.062 464.397 406.602 483.886 400.039 493.09C394.844 500.128 394.844 500.128 401.133 510.955C416.445 537.483 401.68 573.484 373.242 578.898C364.219 580.522 363.672 581.334 363.672 591.079V601.636H350H336.328V590.808V579.981H319.922H303.516V500.128V420.274H319.922H336.328V409.447V398.619H349.727H363.398L364.219 409.988ZM256.758 421.628L264.961 428.666L257.031 441.118C232.969 478.473 233.242 525.031 257.305 560.762C281.367 596.493 324.844 616.253 365.312 609.757C381.445 607.05 408.242 596.222 416.445 588.643C421.367 584.312 421.914 584.583 429.57 592.974C433.945 597.846 437.5 602.719 437.5 604.072C437.5 608.133 412.344 622.75 394.844 628.976C371.875 637.367 328.125 637.367 305.156 628.976C221.484 598.929 187.578 501.752 235.156 427.583C239.531 420.545 244.453 414.861 245.82 414.861C247.188 414.861 252.109 417.838 256.758 421.628Z" fill="white"/>
<path d="M328.125 467.645V487.947H348.359C371.602 487.947 378.984 483.886 381.719 469.811C383.086 462.773 381.992 459.795 376.523 454.381C370.234 448.155 367.227 447.343 348.633 447.343H328.125V467.645Z" fill="white"/>
<path d="M328.125 533.964V555.619H345.898C367.227 555.619 375.977 552.1 380.352 541.272C383.086 534.776 383.086 532.069 379.805 526.114C374.063 516.098 364.766 512.309 345.352 512.309H328.125V533.964Z" fill="white"/>
</g>
<defs>
<clipPath id="clip0_1546_666">
<rect width="700" height="688" fill="white"/>
</clipPath>
</defs>
</svg>
