<svg width="700" height="700" viewBox="0 0 700 700" fill="none" xmlns="http://www.w3.org/2000/svg">
<g clip-path="url(#clip0_1546_666)">
<rect width="700" height="700" rx="283" fill="black"/>
<path d="M0.273438 130.713C0.546875 252.995 0.820313 262.359 4.375 247.211C11.7578 216.641 26.25 191.578 51.9531 165.69C78.4766 138.7 101.992 124.929 135.625 116.391C167.891 108.129 213.555 109.782 241.445 120.523C245.547 122.175 246.094 120.523 246.094 105.65V88.8504H259.766H273.438V111.985C273.438 134.568 273.711 135.395 281.367 140.903C285.742 144.208 290.117 146.686 290.938 146.686C291.758 146.686 292.578 127.959 292.578 105.375V64.0635H304.883H317.188V118.044V171.749L326.758 184.418L336.328 197.087V97.3881V-2.03492H168.164H0L0.273438 130.713Z" fill="white"/>
<path d="M363.672 97.3881V197.087L373.242 184.418L382.813 171.749V118.044V64.0635H395.117H407.422V105.375C407.422 127.959 408.242 146.687 409.063 146.687C409.883 146.687 414.258 144.208 418.633 140.903C426.289 135.395 426.563 134.568 426.563 111.985V88.8504H440.234H453.906V105.65C453.906 120.523 454.453 122.175 458.828 120.523C486.445 109.782 532.109 108.129 564.375 116.391C598.008 124.929 621.523 138.7 648.047 165.69C673.477 191.303 688.242 217.191 695.625 247.762C699.18 262.083 699.453 250.792 699.727 130.713L700 -2.03492H531.836H363.672V97.3881Z" fill="white"/>
<path d="M142.734 141.178C86.9531 156.05 42.6562 200.942 28.9844 257.126C26.5234 267.041 24.6094 276.68 24.6094 278.332C24.6094 280.536 31.7187 281.637 47.8516 281.637H71.0937L94.0625 235.369L117.031 189.375L119.492 199.014C120.859 204.247 128.242 233.165 135.625 262.91C142.734 292.929 149.57 316.339 150.664 315.237C151.484 314.136 160.781 291.828 170.898 265.664C181.289 239.775 190.586 218.293 191.68 218.293C192.773 218.293 200.977 235.919 210 257.401L226.406 296.785L232.695 283.565L238.984 270.621H287.383H335.781L331.68 254.647C321.562 215.264 289.57 173.952 255.117 155.5C233.789 144.208 200.977 135.67 179.375 135.945C170.078 135.945 153.672 138.424 142.734 141.178Z" fill="white"/>
<path d="M481.797 141.178C452.812 148.89 430.664 161.834 408.789 183.867C378.711 214.162 363.672 250.792 363.672 294.031C363.672 323.224 365.312 328.457 373.789 328.457C387.188 328.457 414.531 337.27 436.133 348.562C467.852 365.362 495.469 393.729 511.602 426.779L523.633 451.566L534.57 450.464C613.594 441.651 675.391 372.798 675.391 294.031C675.117 221.874 626.445 159.355 556.445 141.178C529.922 134.293 507.773 134.293 481.797 141.178ZM561.367 230.136C583.516 263.736 601.562 292.379 601.562 293.48C601.562 296.51 521.719 416.588 519.531 416.588C517.344 416.588 437.5 296.51 437.5 293.48C437.5 290.726 517.891 168.719 519.531 168.719C520.352 168.719 538.945 196.536 561.367 230.136Z" fill="white"/>
<path d="M97.6172 285.769L87.5 306.424H55.7812H24.0625L25.7031 316.615C38.2812 387.395 95.7031 442.477 165.43 450.464L176.367 451.566L188.125 426.779C205.352 391.251 232.422 364.261 268.242 346.91C293.672 334.792 313.359 328.457 326.211 328.457C333.867 328.457 336.328 322.674 336.328 305.598V295.408H296.68H257.031L241.992 325.703C233.516 342.503 225.859 355.723 224.492 354.897C223.398 354.07 215.742 337.821 207.812 318.818C199.883 299.815 192.5 285.218 191.406 286.319C190.312 287.421 179.922 312.759 168.438 342.228C156.68 371.697 146.289 397.034 145.195 398.136C143.828 399.513 135.898 371.421 127.148 336.169C118.398 300.916 110.469 270.346 109.648 268.693C108.555 266.49 103.633 273.651 97.6172 285.769Z" fill="white"/>
<path d="M0.273438 513.533L0 703.015H61.5234H123.047V690.621V678.228H135.352H147.656V690.621V703.015H350H552.344V690.621V678.228H564.648H576.953V690.621V703.015H638.477H700L699.727 513.533C699.727 344.156 699.18 325.978 695.625 339.474C693.711 347.736 686.328 365.913 679.492 379.408L667.188 404.195V480.759V557.048H654.883H642.578L642.031 493.703L641.211 430.634L632.461 437.52L623.438 444.405V522.897V601.113H609.766H596.094V530.608C596.094 464.51 595.82 460.103 591.445 462.031C588.711 463.133 584.336 464.785 581.875 465.336C577.227 466.713 576.953 473.874 576.953 562.831V658.949H564.648H552.344V566.687V474.425H544.961C532.109 474.425 531.289 476.628 531.016 508.851C530.742 543.828 526.367 563.657 512.695 591.474C489.727 638.844 443.789 675.749 393.75 687.592C371.055 693.1 328.945 693.1 306.25 687.592C255.391 675.749 208.086 636.916 185.664 588.72C173.359 562.556 168.711 539.697 168.711 507.474C168.984 476.628 167.891 474.425 155.312 474.425H147.656V566.687V658.949H135.352H123.047V562.831C123.047 473.874 122.773 466.713 118.398 465.336C115.664 464.785 111.289 463.133 108.828 462.031C104.18 460.103 103.906 464.51 103.906 530.608V601.113H90.2344H76.5625V522.897V444.405L67.8125 437.52L58.7891 430.634L57.9688 493.703L57.4219 557.048H45.1172H32.8125V480.759V404.195L20.5078 379.408C13.6719 365.913 6.28906 347.736 4.375 339.474C0.820312 325.978 0.273438 344.156 0.273438 513.533Z" fill="white"/>
<path d="M309.258 357.651C284.648 364.26 262.5 377.756 240.352 400.064C208.633 431.736 194.141 466.438 194.141 511.054C194.141 581.559 245.82 646.556 314.727 663.08C424.375 688.969 525.82 588.444 502.852 476.628C491.914 422.923 442.969 371.421 389.648 357.375C369.414 352.142 328.945 352.142 309.258 357.651ZM384.18 376.379C404.688 382.162 415.898 387.67 432.031 399.788C488.906 443.028 503.398 524.274 464.57 584.864C459.922 592.3 455.273 598.359 454.18 598.359C453.359 598.359 448.438 594.779 443.242 590.372L433.945 582.661L441.055 573.297C458.281 550.162 465.664 514.084 458.281 485.992C452.539 463.408 445.977 451.015 430.938 434.215C394.023 392.628 330.586 386.293 284.648 419.342L276.719 424.851L269.336 414.936C262.773 406.123 262.227 404.746 266.055 400.615C271.797 394.28 298.594 380.785 314.18 376.654C331.133 371.697 367.5 371.697 384.18 376.379ZM364.219 417.139C365.039 427.88 365.859 428.982 374.609 431.185C386.641 434.215 400.859 447.71 404.961 460.103C409.062 472.497 406.602 492.326 400.039 501.69C394.844 508.851 394.844 508.851 401.133 519.867C416.445 546.857 401.68 583.487 373.242 588.995C364.219 590.648 363.672 591.474 363.672 601.389V612.13H350H336.328V601.113V590.097H319.922H303.516V508.851V427.605H319.922H336.328V416.588V405.572H349.727H363.398L364.219 417.139ZM256.758 428.982L264.961 436.143L257.031 448.811C232.969 486.818 233.242 534.189 257.305 570.543C281.367 606.897 324.844 627.002 365.312 620.392C381.445 617.638 408.242 606.621 416.445 598.91C421.367 594.503 421.914 594.779 429.57 603.316C433.945 608.274 437.5 613.231 437.5 614.608C437.5 618.739 412.344 633.612 394.844 639.946C371.875 648.484 328.125 648.484 305.156 639.946C221.484 609.375 187.578 510.503 235.156 435.041C239.531 427.88 244.453 422.097 245.82 422.097C247.188 422.097 252.109 425.126 256.758 428.982Z" fill="white"/>
<path d="M328.125 475.802V496.457H348.359C371.602 496.457 378.984 492.326 381.719 478.005C383.086 470.844 381.992 467.815 376.523 462.306C370.234 455.972 367.227 455.146 348.633 455.146H328.125V475.802Z" fill="white"/>
<path d="M328.125 543.277V565.31H345.898C367.227 565.31 375.977 561.729 380.352 550.713C383.086 544.103 383.086 541.349 379.805 535.29C374.063 525.1 364.766 521.244 345.352 521.244H328.125V543.277Z" fill="white"/>
</g>
<defs>
<clipPath id="clip0_1546_666">
<rect width="700" height="700" rx="283" fill="white"/>
</clipPath>
</defs>
</svg>
